# xmcd
#
# Track frame offsets: 
#        182
#        11702
#        24747
#        38450
#        50965
#        64972
#        77660
#        90130
#        102820
#        116982
#        130220
#        148247
#        162662
#        174582
#        189785
#
# Disc length: 2690 seconds
#
# Revision: 3
# Processed by: cddbd v1.5.2PL0 Copyright (c) Steve Scherf et al.
# Submitted via: ExactAudioCopy v0.99pb4
#
DISCID=cb0a800f
DTITLE=Blind Willie McTell - Atlanta Twelve String
DYEAR=1991
DGENRE=Blues
TTITLE0=Kill It Kid
TTITLE1=The Razor Ball
TTITLE2=Little Delia
TTITLE3=Broke Down Engine Blues
TTITLE4=Dying Crapshooter's Blues
TTITLE5=Pinetop's Boogie Woogie
TTITLE6=Blues Around Midnight
TTITLE7=Last Dime Blues
TTITLE8=On The Cooling Board
TTITLE9=Motherless Children Have A Hard Time
TTITLE10=I Got To Cross The River Jordan
TTITLE11=You Got To Die
TTITLE12=Ain't It Grand To Live A Christian
TTITLE13=Pearly Gates
TTITLE14=Soon This Morning
EXTD=
EXTT0=
EXTT1=
EXTT2=
EXTT3=
EXTT4=
EXTT5=
EXTT6=
EXTT7=
EXTT8=
EXTT9=
EXTT10=
EXTT11=
EXTT12=
EXTT13=
EXTT14=
PLAYORDER=
